# xmcd CD database file
# Copyright (C) 1993-1998 Ti Kan
#
# Track frame offsets:
# 150
# 18415
# 38147
# 60592
# 82390
# 98120
# 115510
# 133275
# 151420
# 165705
# 182880
#
# Disc length: 2703 seconds
# Revision: 0
# Processed by: cddbd v1.4b41PL1 Copyright (c) Steve Scherf et al.
# Submitted via: CDSpectrumPro v3.3.331
#
DISCID=900a8d0b
DTITLE=Evil's Toy - Illusion
DYEAR=1900
DGENRE=
TTITLE0=Lucifer's Garden
TTITLE1=Co Excistence
TTITLE2=Illusion
TTITLE3=Prevision
TTITLE4=Movie
TTITLE5=Under the White Waves
TTITLE6=Psi
TTITLE7=Shades of Vanity
TTITLE8=Fallen Angel
TTITLE9=Walk On The Clouds
TTITLE10=Bonus Track ('92)
EXTD=
EXTT0=
EXTT1=
EXTT2=
EXTT3=
EXTT4=
EXTT5=
EXTT6=
EXTT7=
EXTT8=
EXTT9=
EXTT10=
PLAYORDER=
